<?xml version="1.0" standalone="no"?><!DOCTYPE svg PUBLIC "-//W3C//DTD SVG 1.1//EN" "http://www.w3.org/Graphics/SVG/1.1/DTD/svg11.dtd"><svg t="1627623735990" class="icon" viewBox="0 0 1024 1024" version="1.1" xmlns="http://www.w3.org/2000/svg" p-id="78271" xmlns:xlink="http://www.w3.org/1999/xlink" width="32" height="32"><defs><style type="text/css">@font-face { font-family: feedback-iconfont; src: url("//at.alicdn.com/t/font_1031158_1uhr8ri0pk5.eot?#iefix") format("embedded-opentype"), url("//at.alicdn.com/t/font_1031158_1uhr8ri0pk5.woff2") format("woff2"), url("//at.alicdn.com/t/font_1031158_1uhr8ri0pk5.woff") format("woff"), url("//at.alicdn.com/t/font_1031158_1uhr8ri0pk5.ttf") format("truetype"), url("//at.alicdn.com/t/font_1031158_1uhr8ri0pk5.svg#iconfont") format("svg"); }
</style></defs><path d="M512 640c70.613333 0 127.573333-57.386667 127.573333-128L640 256c0-70.826667-57.173333-128-128-128-70.613333 0-128 57.173333-128 128v256c0 70.613333 57.386667 128 128 128z m226.133333-128c0 128-108.16 217.6-226.133333 217.6-117.76 0-226.133333-89.6-226.133333-217.6H213.333333c0 145.706667 116.053333 266.026667 256 286.72V938.666667h85.333334v-139.946667c139.946667-20.693333 256-141.013333 256-286.72h-72.533334z" p-id="78272" fill="#ffffff"></path></svg>