<?xml version="1.0" standalone="no"?><!DOCTYPE svg PUBLIC "-//W3C//DTD SVG 1.1//EN" "http://www.w3.org/Graphics/SVG/1.1/DTD/svg11.dtd"><svg t="1627623960869" class="icon" viewBox="0 0 1024 1024" version="1.1" xmlns="http://www.w3.org/2000/svg" p-id="140813" xmlns:xlink="http://www.w3.org/1999/xlink" width="32" height="32"><defs><style type="text/css">@font-face { font-family: feedback-iconfont; src: url("//at.alicdn.com/t/font_1031158_1uhr8ri0pk5.eot?#iefix") format("embedded-opentype"), url("//at.alicdn.com/t/font_1031158_1uhr8ri0pk5.woff2") format("woff2"), url("//at.alicdn.com/t/font_1031158_1uhr8ri0pk5.woff") format("woff"), url("//at.alicdn.com/t/font_1031158_1uhr8ri0pk5.ttf") format("truetype"), url("//at.alicdn.com/t/font_1031158_1uhr8ri0pk5.svg#iconfont") format("svg"); }
</style></defs><path d="M384 896c0 23.466667 19.2 42.666667 42.666667 42.666667h170.666666c23.466667 0 42.666667-19.2 42.666667-42.666667v-42.666667H384v42.666667z m128-810.666667c-164.906667 0-298.666667 133.76-298.666667 298.666667 0 101.546667 50.773333 190.933333 128 244.906667V725.333333c0 23.466667 19.2 42.666667 42.666667 42.666667h256c23.466667 0 42.666667-19.2 42.666667-42.666667v-96.426666c77.226667-53.973333 128-143.36 128-244.906667 0-164.906667-133.76-298.666667-298.666667-298.666667z m121.813333 473.6L597.333333 584.32V682.666667h-170.666666v-98.133334l-36.48-25.386666a213.546667 213.546667 0 0 1-91.52-174.933334c0-117.546667 95.786667-213.333333 213.333333-213.333333s213.333333 95.786667 213.333333 213.333333c0 69.333333-34.133333 134.613333-91.52 174.72z" p-id="140814" fill="#ffffff"></path></svg>