<?xml version="1.0" standalone="no"?><!DOCTYPE svg PUBLIC "-//W3C//DTD SVG 1.1//EN" "http://www.w3.org/Graphics/SVG/1.1/DTD/svg11.dtd"><svg t="1658746420283" class="icon" viewBox="0 0 1024 1024" version="1.1" xmlns="http://www.w3.org/2000/svg" p-id="72370" xmlns:xlink="http://www.w3.org/1999/xlink" width="64" height="64"><defs><style type="text/css">@font-face { font-family: feedback-iconfont; src: url("//at.alicdn.com/t/font_1031158_u69w8yhxdu.woff2?t=1630033759944") format("woff2"), url("//at.alicdn.com/t/font_1031158_u69w8yhxdu.woff?t=1630033759944") format("woff"), url("//at.alicdn.com/t/font_1031158_u69w8yhxdu.ttf?t=1630033759944") format("truetype"); }
</style></defs><path d="M768 686.08c-32.426667 0-61.44 12.8-83.626667 32.853333L380.16 541.866667c2.133333-9.813333 3.84-19.626667 3.84-29.866667s-1.706667-20.053333-3.84-29.866667l300.8-175.36c23.04 21.333333 53.333333 34.56 87.04 34.56 70.826667 0 128-57.173333 128-128s-57.173333-128-128-128-128 57.173333-128 128c0 10.24 1.706667 20.053333 3.84 29.866667L343.04 418.56C320 397.226667 289.706667 384 256 384c-70.826667 0-128 57.173333-128 128s57.173333 128 128 128c33.706667 0 64-13.226667 87.04-34.56l303.786667 177.493333c-2.133333 8.96-3.413333 18.346667-3.413334 27.733334 0 68.693333 55.893333 124.586667 124.586667 124.586666 68.693333 0 124.586667-55.893333 124.586667-124.586666s-55.893333-124.586667-124.586667-124.586667z" p-id="72371" fill="#ffffff"></path></svg>