<?xml version="1.0" standalone="no"?><!DOCTYPE svg PUBLIC "-//W3C//DTD SVG 1.1//EN" "http://www.w3.org/Graphics/SVG/1.1/DTD/svg11.dtd"><svg t="1627624033776" class="icon" viewBox="0 0 1024 1024" version="1.1" xmlns="http://www.w3.org/2000/svg" p-id="141377" xmlns:xlink="http://www.w3.org/1999/xlink" width="32" height="32"><defs><style type="text/css">@font-face { font-family: feedback-iconfont; src: url("//at.alicdn.com/t/font_1031158_1uhr8ri0pk5.eot?#iefix") format("embedded-opentype"), url("//at.alicdn.com/t/font_1031158_1uhr8ri0pk5.woff2") format("woff2"), url("//at.alicdn.com/t/font_1031158_1uhr8ri0pk5.woff") format("woff"), url("//at.alicdn.com/t/font_1031158_1uhr8ri0pk5.ttf") format("truetype"), url("//at.alicdn.com/t/font_1031158_1uhr8ri0pk5.svg#iconfont") format("svg"); }
</style></defs><path d="M704 512c0-75.306667-43.52-140.373333-106.666667-171.733333v94.293333l104.746667 104.746667c1.28-8.96 1.92-18.133333 1.92-27.306667z m106.666667 0c0 40.106667-8.746667 77.866667-23.04 112.64l64.64 64.64C880 636.16 896 576 896 512c0-182.613333-127.786667-335.36-298.666667-374.186667v88.106667c123.306667 36.693333 213.333333 150.826667 213.333334 286.08zM182.4 128L128 182.4 329.6 384H128v256h170.666667l213.333333 213.333333V566.4l181.546667 181.546667c-28.586667 21.973333-60.8 39.68-96.213334 50.346666v88.106667a382.72 382.72 0 0 0 157.226667-77.226667L841.6 896 896 841.6l-384-384L182.4 128zM512 170.666667l-89.173333 89.173333L512 349.013333V170.666667z" p-id="141378" fill="#ffffff"></path></svg>