<?xml version="1.0" standalone="no"?><!DOCTYPE svg PUBLIC "-//W3C//DTD SVG 1.1//EN" "http://www.w3.org/Graphics/SVG/1.1/DTD/svg11.dtd"><svg t="1555406172112" class="icon" style="" viewBox="0 0 1024 1024" version="1.1" xmlns="http://www.w3.org/2000/svg" p-id="7128" xmlns:xlink="http://www.w3.org/1999/xlink" width="200" height="200"><defs><style type="text/css"></style></defs><path d="M906.368 791.616a247.872 247.872 0 0 0-98.112-186.496V399.36c0-118.848-85.056-218.88-197.44-242.496v-4.736c0-54.208-44.48-98.56-98.816-98.56-54.336 0-98.816 44.352-98.816 98.624v4.736C300.8 180.48 215.744 280.448 215.744 399.36v205.824a247.744 247.744 0 0 0-98.112 186.496h98.112v0.64h592.512v-0.64h98.112v-0.064z m-415.232 178.816h24.512c64.32 0 117.76-48.512 125.568-110.656H383.04a126.848 126.848 0 0 0 125.568 110.656h-17.472z" fill="#ffffff" p-id="7129"></path></svg>