<?xml version="1.0" encoding="utf-8"?>
<!-- Generator: Adobe Illustrator 25.3.1, SVG Export Plug-In . SVG Version: 6.00 Build 0)  -->
<svg version="1.1" id="图层_1" xmlns="http://www.w3.org/2000/svg" xmlns:xlink="http://www.w3.org/1999/xlink" x="0px" y="0px"
	 viewBox="0 0 48 48" style="enable-background:new 0 0 48 48;" xml:space="preserve">
<style type="text/css">
	.st0{fill:#1296DB;}
</style>
<path class="st0" d="M11.3,14.6c-1.1,1.5-1.9,3.2-2.4,5c-0.1,0.4,0.1,0.9,0.5,1h0.2c0.3,0,0.6-0.2,0.7-0.6c0.5-1.6,1.2-3.1,2.1-4.5
	c0.2-0.4,0.2-0.8-0.2-1.1C12,14.1,11.6,14.2,11.3,14.6C11.3,14.6,11.3,14.6,11.3,14.6z M14.1,11.5c-0.3,0.3-0.4,0.8-0.1,1.1
	c0.1,0.2,0.4,0.3,0.6,0.3c0.2,0,0.4-0.1,0.5-0.2c3.3-2.7,7.6-3.8,11.7-3c0.4,0.1,0.8-0.2,0.9-0.6c0,0,0,0,0,0
	c0.1-0.4-0.2-0.8-0.6-0.9c0,0,0,0,0,0C22.4,7.3,17.7,8.5,14.1,11.5z"/>
<path d="M47.5,23.8c-0.2-2-1.9-3.8-5.1-5c-0.1,0-0.2,0-0.3,0H42c-0.1,0-0.2,0.1-0.3,0.2c-0.1,0.1-0.1,0.2-0.2,0.3c0,0,0,0.1,0,0.1
	c0,0.1,0,0.3,0,0.4C41.8,21,42,22.5,42,24c0,0.8-0.1,1.6-0.3,2.4c0,0.1,0,0.1,0,0.2c-0.1,0.8-0.3,1.5-0.5,2.2V29l-0.7,0.3l-0.8,0.4
	l-0.9,0.4L38,30.4l-1.2,0.4L36,31.1l-1.2,0.3l-0.9,0.2L32.5,32l-0.8,0.2l-1.5,0.3l-0.8,0.1l-1.7,0.3L27,33l-2.4,0.3
	c-0.8,0-1.5,0.1-2.4,0.2h-6.8l-0.8-0.1l-1.3-0.1l-0.8-0.1l-1.2-0.2l-0.8-0.1l-1.1-0.2l-0.7-0.2L8,32.1c-0.2-0.3-0.3-0.6-0.4-1
	c-0.1-0.3-0.2-0.6-0.3-0.8S7,29.5,6.9,29.1c-0.1-0.4-0.2-0.5-0.2-0.8c-0.1-0.5-0.2-0.9-0.2-1.4c0-0.2-0.1-0.5-0.1-0.7
	c-0.1-0.7-0.1-1.4-0.1-2.2c0-0.5,0-0.9,0-1.4c0.7-10.1,9.2-17.8,19-17.1C30.7,6,35.8,9,38.9,13.8c0.2,0.4,0.7,0.5,1.1,0.2
	c0.4-0.2,0.5-0.7,0.3-1.1c0,0,0,0,0,0C34.3,3.8,22.3,1.2,13.4,7.3c-4.9,3.3-8.1,8.8-8.6,14.8c-2.9,1.8-4.4,3.8-4.2,5.9
	c0.2,2.3,2.4,4.2,6.4,5.5c5,9.7,16.8,13.4,26.2,8.2c4.5-2.5,7.8-6.6,9.3-11.6C45.9,28.2,47.7,26,47.5,23.8z M2,27.8
	c-0.1-1.2,0.8-2.5,2.6-3.8c0,0.7,0.1,1.4,0.1,2.1c0,0.2,0,0.4,0.1,0.6c0,0.5,0.2,1,0.3,1.6c0,0.2,0.1,0.5,0.2,0.7
	c0.1,0.5,0.3,1,0.4,1.5c0,0.2,0.1,0.4,0.2,0.6c0.1,0.2,0,0.2,0.1,0.3C3.6,30.5,2.2,29.2,2,27.8z M24,42.4c-6,0-11.7-3.2-15-8.4h0.3
	l1,0.2l0.6,0.1l1.2,0.2h0.5l1.7,0.2h7.8c0.9,0,1.7-0.1,2.6-0.2s1.5-0.2,2.4-0.3l0.9,0.1l1.5-0.2l0.9-0.2l1.3-0.3l0.9-0.2l1.3-0.3
	l0.9-0.2l1.2-0.4l0.8-0.2l1.3-0.4l0.6-0.2c0.6-0.2,1.2-0.5,1.8-0.7C37.7,37.9,31.2,42.4,24,42.4z M43,27.9v-0.3
	c0.1-0.4,0.1-0.9,0.2-1.3v-0.5c0.1-0.6,0.1-1.2,0.1-1.8c0-0.7,0-1.4,0-2.1c0-0.2,0-0.4-0.1-0.6c-0.1-0.2,0-0.4,0-0.5
	c1.8,0.9,2.7,2,2.8,3.1C46.1,25.1,45,26.6,43,27.9z"/>
</svg>
