<?xml version="1.0" encoding="utf-8"?>
<!-- Generator: Adobe Illustrator 25.3.1, SVG Export Plug-In . SVG Version: 6.00 Build 0)  -->
<svg version="1.1" id="图层_1" xmlns="http://www.w3.org/2000/svg" xmlns:xlink="http://www.w3.org/1999/xlink" x="0px" y="0px"
	 viewBox="0 0 48 48" style="enable-background:new 0 0 48 48;" xml:space="preserve">
<style type="text/css">
	.st0{fill:#1296DB;}
</style>
<path class="st0" d="M44.4,38.1h-3.2c-0.6-1.2-1.8-3.6-1.8-4.9c0-0.5,0.2-0.8,0.6-1.2c0.6-0.8,1.5-2,1.5-5.1c0-3.1-2.5-5.6-5.6-5.6
	s-5.6,2.5-5.6,5.6c0,3,0.9,4.2,1.5,5.1c0.4,0.5,0.6,0.7,0.6,1.2c0,1.3-1.1,3.7-1.8,4.9h-4.1c-1.7,0-3.1,1.2-3.1,2.8v3.8
	c0,1.6,1.4,2.8,3.1,2.8h18c1.7,0,3.1-1.2,3.1-2.8v-3.8C47.5,39.4,46.1,38.1,44.4,38.1z M33.7,33.3c0-1-0.4-1.6-0.8-2.1
	c-0.6-0.8-1.2-1.6-1.2-4.2c0-2.3,1.9-4.2,4.2-4.2S40,24.6,40,27c0,2.6-0.6,3.4-1.2,4.2c-0.4,0.6-0.8,1.1-0.8,2.1
	c0,1.4,0.9,3.6,1.6,4.9h-7.5C32.7,36.9,33.7,34.7,33.7,33.3z M46.1,44.7c0,0.7-0.7,1.4-1.7,1.4h-18c-0.9,0-1.7-0.6-1.7-1.4v-3.8
	c0-0.7,0.7-1.4,1.7-1.4h18c0.9,0,1.7,0.6,1.7,1.4C46.1,40.9,46.1,44.7,46.1,44.7z"/>
<path d="M36.6,13.6L36.6,13.6v-0.1c0,0,0-0.1,0-0.1c0,0,0,0,0,0c0,0,0,0,0-0.1c0,0,0,0,0,0c0,0,0,0,0-0.1l0,0l0,0L22.5,0.6
	c-0.2-0.2-0.4-0.2-0.7-0.2H3.6c-1.7,0-3.1,1.4-3.1,3.1v40.8c0,1.7,1.4,3.1,3.1,3.1h14.9c0.4,0,0.7-0.3,0.7-0.7
	c0-0.4-0.3-0.7-0.7-0.7H3.6c-0.9,0-1.7-0.7-1.7-1.7V3.6c0-0.9,0.7-1.7,1.7-1.7h17.7v9.3c0,1.7,1.4,3.1,3.1,3.1h10.7v3.9
	c0,0.4,0.3,0.7,0.7,0.7s0.7-0.3,0.7-0.7V13.6C36.6,13.6,36.6,13.6,36.6,13.6z M24.4,12.9c-0.9,0-1.7-0.7-1.7-1.7V2.8L34,12.9H24.4z"
	/>
<path d="M22,22.7H6.6c-0.4,0-0.7-0.3-0.7-0.7s0.3-0.7,0.7-0.7H22c0.4,0,0.7,0.3,0.7,0.7S22.4,22.7,22,22.7z M22,33.6H6.6
	c-0.4,0-0.7-0.3-0.7-0.7c0-0.4,0.3-0.7,0.7-0.7H22c0.4,0,0.7,0.3,0.7,0.7C22.7,33.3,22.4,33.6,22,33.6z"/>
<path d="M22,17.3H6.6c-0.4,0-0.7-0.3-0.7-0.7s0.3-0.7,0.7-0.7H22c0.4,0,0.7,0.3,0.7,0.7S22.4,17.3,22,17.3z M22,28.2H6.6
	c-0.4,0-0.7-0.3-0.7-0.7s0.3-0.7,0.7-0.7H22c0.4,0,0.7,0.3,0.7,0.7S22.4,28.2,22,28.2z"/>
</svg>
