<?xml version="1.0" encoding="utf-8"?>
<!-- Generator: Adobe Illustrator 25.3.1, SVG Export Plug-In . SVG Version: 6.00 Build 0)  -->
<svg version="1.1" id="图层_1" xmlns="http://www.w3.org/2000/svg" xmlns:xlink="http://www.w3.org/1999/xlink" x="0px" y="0px"
	 viewBox="0 0 48 48" style="enable-background:new 0 0 48 48;" xml:space="preserve">
<style type="text/css">
	.st0{fill:#1296DB;}
	.st1{fill:#FFFFFF;}
</style>
<rect x="6.8" y="10.6" width="21.6" height="1.4"/>
<rect x="6.8" y="18.1" width="17.2" height="1.4"/>
<rect x="6.8" y="25.5" width="11.2" height="1.4"/>
<rect x="6.8" y="33" width="11.2" height="1.4"/>
<path d="M36.4,0.5h-33c-1.7,0-3.1,1.4-3.1,3.1v40.8c0,1.7,1.4,3.1,3.1,3.1h14.9c0.4,0,0.7-0.3,0.7-0.7c0-0.4-0.3-0.7-0.7-0.7H3.4
	c-0.9,0-1.7-0.8-1.7-1.7V3.6c0-0.9,0.8-1.7,1.7-1.7l33,0"/>
<path d="M34.9,1.6l0.1,16.6c0,0.4,0.3,0.7,0.7,0.7c0.4,0,0.7-0.3,0.7-0.7v-17"/>
<path d="M11.7,47.5h14.9c0.4,0,0.7-0.3,0.7-0.7c0-0.4-0.3-0.7-0.7-0.7H11.7"/>
<g>
	<path class="st0" d="M32.9,40.5c0,0,0.4,0,1,0c0.5,0,1,0,1,0s-0.4,0-1,0C33.4,40.5,32.9,40.5,32.9,40.5z"/>
	<circle class="st0" cx="34.9" cy="33.7" r="10"/>
	<circle class="st1" cx="34.9" cy="33.7" r="9"/>
</g>
<path class="st0" d="M35.7,26.2l1.6,3.7c0.2,0.2,0.4,0.4,0.6,0.4l3.7,0.4c0.6,0,1,1.1,0.4,1.5l-2.9,2.6C39,35.1,39,35.4,39,35.8
	l0.8,3.9c0.2,0.7-0.6,1.3-1.2,0.9l-3.3-2c-0.2-0.2-0.6-0.2-0.8,0l-3.3,2c-0.6,0.4-1.2-0.2-1.2-0.9l0.8-3.9c0-0.2,0-0.7-0.2-0.9
	l-2.9-2.6c-0.6-0.4-0.2-1.3,0.4-1.5l3.7-0.4c0.2,0,0.6-0.2,0.6-0.4l1.6-3.7C34.5,25.6,35.3,25.6,35.7,26.2z"/>
</svg>
