<?xml version="1.0" encoding="utf-8"?>
<!-- Generator: Adobe Illustrator 25.3.1, SVG Export Plug-In . SVG Version: 6.00 Build 0)  -->
<svg version="1.1" id="图层_1" xmlns="http://www.w3.org/2000/svg" xmlns:xlink="http://www.w3.org/1999/xlink" x="0px" y="0px"
	 viewBox="0 0 16 16" style="enable-background:new 0 0 16 16;" xml:space="preserve">
<style type="text/css">
	.st0{fill:#1296DB;}
</style>
<path d="M13.8,16H2.2C1.5,16,1,15.4,1,14.7v-3.6c0-0.3,0.2-0.5,0.5-0.5S2,10.9,2,11.2v3.6C2,14.9,2.1,15,2.2,15h11.6
	c0.1,0,0.2-0.1,0.2-0.3V1.3C14,1.1,13.9,1,13.8,1H2.2C2.1,1,2,1.1,2,1.3v3.6c0,0.3-0.2,0.5-0.5,0.5C1.2,5.3,1,5.1,1,4.8V1.3
	C1,0.6,1.5,0,2.2,0h11.6C14.5,0,15,0.6,15,1.3v13.4C15,15.4,14.5,16,13.8,16z"/>
<path class="st0" d="M11.3,8.5H2.5C2.2,8.5,2,8.3,2,8c0-0.3,0.2-0.5,0.5-0.5h8.8c0.3,0,0.5,0.2,0.5,0.5C11.8,8.3,11.5,8.5,11.3,8.5z
	"/>
<path class="st0" d="M9.7,10.9c-0.3,0-0.5-0.2-0.5-0.5c0-0.1,0-0.2,0.1-0.3l2-2.4c0.2-0.2,0.5-0.2,0.7,0c0.2,0.2,0.2,0.5,0.1,0.7
	l-2,2.4C10,10.8,9.9,10.9,9.7,10.9z"/>
<path class="st0" d="M11.7,8.5c-0.1,0-0.3-0.1-0.4-0.2L9.3,6C9.2,5.7,9.2,5.4,9.4,5.2c0.2-0.2,0.5-0.2,0.7,0.1l2,2.4
	c0.2,0.2,0.2,0.5-0.1,0.7C12,8.5,11.8,8.5,11.7,8.5z"/>
</svg>
