<?xml version="1.0" encoding="utf-8"?>
<!-- Generator: Adobe Illustrator 25.3.1, SVG Export Plug-In . SVG Version: 6.00 Build 0)  -->
<svg version="1.1" id="图层_1" xmlns="http://www.w3.org/2000/svg" xmlns:xlink="http://www.w3.org/1999/xlink" x="0px" y="0px"
	 viewBox="0 0 16 16" style="enable-background:new 0 0 16 16;" xml:space="preserve">
<path d="M12.5,7.9c0,0,0-0.1-0.1-0.1c0,0,0,0-0.1-0.1L9,3.9c-0.1-0.1-0.3-0.1-0.5,0c-0.1,0.2-0.1,0.4,0,0.5l2.8,3.2H4.3
	c-0.2,0-0.4,0.2-0.4,0.4c0,0.2,0.2,0.4,0.4,0.4h7.1l-2.9,3.2c-0.1,0.1-0.1,0.4,0,0.5c0.1,0.2,0.4,0.2,0.5,0l3.4-3.9c0,0,0,0,0.1-0.1
	c0,0,0.1-0.1,0.1-0.1c0,0,0-0.1,0-0.2v0C12.6,8,12.6,8,12.5,7.9L12.5,7.9z"  fill="#1296db"/>
<path d="M14.5,11.4c-0.2,0-0.4,0.2-0.4,0.4v2.4c0,0.6,0,0.5-0.6,0.5l-11.1,0c-0.6,0-0.8,0.1-0.8-0.5V2c0-0.6,0.2-0.5,0.8-0.5h11.1
	c0.6,0,0.6,0,0.6,0.5v2.4h0c0,0.2,0.2,0.3,0.4,0.3c0.2,0,0.4-0.1,0.4-0.3h0V1.6c0-0.6-0.4-1-1-1l-12,0c-0.6,0-1,0.4-1,1l0,13
	c0,0.6,0.4,1,1,1h12c0.6,0,1-0.4,1-1l0-2.8C14.9,11.6,14.7,11.4,14.5,11.4L14.5,11.4z" />
</svg>
