<?xml version="1.0" encoding="utf-8"?>
<!-- Generator: Adobe Illustrator 25.3.1, SVG Export Plug-In . SVG Version: 6.00 Build 0)  -->
<svg version="1.1" id="图层_1" xmlns="http://www.w3.org/2000/svg" xmlns:xlink="http://www.w3.org/1999/xlink" x="0px" y="0px"
	 viewBox="0 0 48 48" style="enable-background:new 0 0 48 48;" xml:space="preserve">
<style type="text/css">
	.st0{fill:#1296DB;}
</style>
<path class="st0" d="M24.7,15.2h-1.3c-3.5,0-6.4,2.8-6.4,6.3v1.7h3.4v-1.7c0-1.6,1.3-2.9,3-2.9h1.3c1.6,0,3,1.3,3,2.9v0.2
	c0,2-1.6,3.6-3.6,3.6h-1.7v5.6h3.4v-2.5c3.1-0.8,5.3-3.5,5.3-6.8v-0.2C31,18,28.2,15.2,24.7,15.2z M22.3,32.8h3.4v3.4h-3.4V32.8z"/>
<path d="M40.5,18.5c-0.9-3.2-2.2-6.1-3.9-8.7C33.2,4.5,28.6,1.5,24,1.5c-1.7,0-3.4,0.4-5.1,1.2c-1.6,0.8-3.1,1.9-4.5,3.3
	c-2.5,2.5-4.6,5.9-6.1,9.8C6.8,19.9,6,24.5,6,29.1c0,5.2,2.2,9.5,5.4,12.6c3.2,3.1,7.2,4.8,12.6,4.8c2.6,0,5-0.4,7.2-1.2
	s4.1-2,5.7-3.5c3.3-3.1,5-7.5,5-12.7C42,25.5,41.5,21.9,40.5,18.5z M36.3,40.2c-2.2,2.7-7.9,4.5-12.3,4.5c-9.1,0-16.4-6.8-16.4-15.7
	c-0.1-8.1,3.1-17.3,7.8-21.9c2.3-2.3,6.3-4.1,8.7-4.1c3.4,0,8.3,2.8,11.2,7.1c3.1,4.8,5.3,12.4,5.3,18.9
	C40.5,33.4,38.9,37.7,36.3,40.2z"/>
</svg>
