<?xml version="1.0" standalone="no"?><!DOCTYPE svg PUBLIC "-//W3C//DTD SVG 1.1//EN" "http://www.w3.org/Graphics/SVG/1.1/DTD/svg11.dtd"><svg t="1627624102596" class="icon" viewBox="0 0 1024 1024" version="1.1" xmlns="http://www.w3.org/2000/svg" p-id="141565" xmlns:xlink="http://www.w3.org/1999/xlink" width="32" height="32"><defs><style type="text/css">@font-face { font-family: feedback-iconfont; src: url("//at.alicdn.com/t/font_1031158_1uhr8ri0pk5.eot?#iefix") format("embedded-opentype"), url("//at.alicdn.com/t/font_1031158_1uhr8ri0pk5.woff2") format("woff2"), url("//at.alicdn.com/t/font_1031158_1uhr8ri0pk5.woff") format("woff"), url("//at.alicdn.com/t/font_1031158_1uhr8ri0pk5.ttf") format("truetype"), url("//at.alicdn.com/t/font_1031158_1uhr8ri0pk5.svg#iconfont") format("svg"); }
</style></defs><path d="M298.666667 1024h85.333333v-85.333333H298.666667v85.333333z m213.333333-469.333333c70.826667 0 127.573333-57.173333 127.573333-128L640 170.666667c0-70.826667-57.173333-128-128-128S384 99.84 384 170.666667v256c0 70.826667 57.173333 128 128 128z m-42.666667 469.333333h85.333334v-85.333333h-85.333334v85.333333z m170.666667 0h85.333333v-85.333333h-85.333333v85.333333z m170.666667-597.333333h-72.533334c0 128-108.373333 217.6-226.133333 217.6S285.866667 554.666667 285.866667 426.666667H213.333333c0 145.493333 116.053333 265.813333 256 286.72V853.333333h85.333334v-139.946666c139.946667-20.906667 256-141.226667 256-286.72z" p-id="141566" fill="#ffffff"></path></svg>