<?xml version="1.0" encoding="utf-8"?>
<!-- Generator: Adobe Illustrator 25.3.1, SVG Export Plug-In . SVG Version: 6.00 Build 0)  -->
<svg version="1.1" id="图层_1" xmlns="http://www.w3.org/2000/svg" xmlns:xlink="http://www.w3.org/1999/xlink" x="0px" y="0px"
	 viewBox="0 0 16 16" style="enable-background:new 0 0 16 16;" xml:space="preserve">
<path d="M15.3,7.1V3.4c0-1.4-1.1-2.6-2.6-2.6H3.5C2.1,0.8,0.9,2,0.9,3.4v3.7H0.1V9h0.8v3.7c0,1.4,1.1,2.6,2.6,2.6h9.3
	c1.4,0,2.6-1.1,2.6-2.6V9h0.8V7.1H15.3L15.3,7.1z M3.3,0h9.6c1.8,0,3.2,1.4,3.2,3.2v9.6c0,1.8-1.4,3.2-3.2,3.2H3.3
	c-1.8,0-3.2-1.4-3.2-3.2V3.2C0.1,1.5,1.6,0,3.3,0L3.3,0z"/>
<path d="M8.1,7.4L6,5.3L5.4,5.9L7.5,8l-2.1,2.1L6,10.6l2.1-2.1l2.1,2.1l0.6-0.6
	L8.6,8l2.1-2.1l-0.6-0.6L8.1,7.4L8.1,7.4z" fill="#1296db" ></path>
</svg>
