<?xml version="1.0" encoding="utf-8"?>
<!-- Generator: Adobe Illustrator 25.3.1, SVG Export Plug-In . SVG Version: 6.00 Build 0)  -->
<svg version="1.1" id="图层_1" xmlns="http://www.w3.org/2000/svg" xmlns:xlink="http://www.w3.org/1999/xlink" x="0px" y="0px"
	 viewBox="0 0 48 48" style="enable-background:new 0 0 48 48;" xml:space="preserve">
<style type="text/css">
	.st0{fill:#1296DB;}
</style>
<path d="M45.4,18.5c-1.1-0.1-3.3-0.7-3.7-1.8c-0.4-0.8,0.1-2.2,1.3-3.9l1.1-1.5l-7.3-7.7l-1.6,1.2c-0.7,0.5-2.4,1.5-3.7,1.5
	c-0.2,0-0.4,0-0.5-0.1C30.4,6,30,4.7,29.9,2.7l-0.1-2.2H18.2l-0.1,2.2C18,4.7,17.6,6,17,6.3c-0.1,0.1-0.3,0.1-0.5,0.1
	c-1.2,0-3-1-3.7-1.5l-1.6-1.2l-7.3,7.7L5,12.9c1.2,1.7,1.7,3.1,1.4,3.9c-0.5,1-2.5,1.7-3.8,1.8l-2.1,0.2v10.5l2,0.2
	c1.2,0.1,3.3,0.8,3.8,1.8C6.7,32,6.2,33.4,5,35.1l-1.1,1.5l7.3,7.7l1.6-1.2c0.7-0.5,2.4-1.5,3.7-1.5c0.2,0,0.4,0,0.5,0.1
	c0.5,0.2,1.1,1.3,1.1,3.7l0.1,2.2h11.6l0.1-2.2c0.1-2,0.5-3.4,1.1-3.7c0.1-0.1,0.3-0.1,0.5-0.1c1.2,0,3,1,3.7,1.5l1.6,1.2l7.3-7.7
	L43,35.1c-1.2-1.7-1.7-3.1-1.4-3.9c0.5-1.1,2.7-1.7,3.8-1.8l2.1-0.2V18.7L45.4,18.5L45.4,18.5z M45.6,27.5l-0.3,0
	c0,0-4.2,0.4-5.3,2.9c-0.7,1.5-0.2,3.4,1.5,5.8l0.2,0.3l-5.1,5.3l-0.3-0.2c-0.9-0.7-3-1.9-4.8-1.9c-0.5,0-1,0.1-1.3,0.3
	c-1.4,0.6-2.1,2.4-2.2,5.3l0,0.4h-8l0-0.4c-0.1-2.9-0.9-4.6-2.2-5.3c-0.4-0.2-0.8-0.3-1.3-0.3c-2.2,0-4.8,1.9-4.8,1.9l-0.3,0.2
	l-5.1-5.3l0.2-0.3c1.7-2.4,2.2-4.3,1.5-5.8c-1.1-2.4-5.1-2.9-5.3-2.9l-0.3,0l0-7.1l0.3,0c0.2,0,4.2-0.4,5.3-2.9
	c0.7-1.5,0.2-3.4-1.5-5.8l-0.2-0.3l5.1-5.3l0.3,0.2c0,0,2.6,1.9,4.8,1.9c0.5,0,1-0.1,1.3-0.3c1.4-0.6,2.1-2.4,2.2-5.3l0-0.4h8l0,0.4
	c0.1,2.9,0.9,4.6,2.2,5.3c0.4,0.2,0.8,0.3,1.3,0.3c1.8,0,3.9-1.2,4.8-1.9l0.3-0.2l5.1,5.3l-0.2,0.3c-1.7,2.4-2.2,4.3-1.5,5.8
	c1.1,2.5,5.2,2.9,5.3,2.9l0.3,0L45.6,27.5L45.6,27.5z"/>
<path class="st0" d="M24,14c-5.5,0-10,4.5-10,10s4.5,10,10,10s10-4.5,10-10S29.5,14,24,14z M24,32.3c-4.6,0-8.3-3.7-8.3-8.3
	s3.7-8.3,8.3-8.3c4.6,0,8.3,3.7,8.3,8.3S28.6,32.3,24,32.3z"/>
</svg>
