<?xml version="1.0" encoding="utf-8"?>
<!-- Generator: Adobe Illustrator 25.3.1, SVG Export Plug-In . SVG Version: 6.00 Build 0)  -->
<svg version="1.1" id="图层_1" xmlns="http://www.w3.org/2000/svg" xmlns:xlink="http://www.w3.org/1999/xlink" x="0px" y="0px"
	 viewBox="0 0 48 48" style="enable-background:new 0 0 48 48;" xml:space="preserve">
<style type="text/css">
	.st0{fill:#1296DB;}
</style>
<rect x="6.8" y="10.6" width="21.6" height="1.4"/>
<rect x="6.8" y="18.1" width="17.2" height="1.4"/>
<rect x="6.8" y="25.5" width="11.2" height="1.4"/>
<rect x="6.8" y="33" width="11.2" height="1.4"/>
<path class="st0" d="M34.9,36.3c-0.7,0-1.3-0.1-2-0.3c-2.1-0.6-3.8-2.1-4.6-4c-0.3-0.8-0.5-1.6-0.5-2.5c0-3.7,3.2-6.7,7.1-6.7
	c0.5,0,0.9,0,1.4,0.1l0.3,0.1l-0.5,1.7l-0.3,0c-0.3-0.1-0.6-0.1-0.9-0.1c-1.4,0-2.7,0.5-3.7,1.4c-1,0.9-1.5,2.2-1.5,3.5
	c0,0.6,0.1,1.2,0.4,1.8c0.3,0.6,0.7,1.2,1.2,1.7c0.6,0.6,1.4,1,2.2,1.2c0.5,0.1,1,0.2,1.5,0.2c1.4,0,2.7-0.5,3.7-1.4
	c1-0.9,1.5-2.2,1.5-3.5c0-0.4-0.1-0.9-0.2-1.3L39.8,28l1.7-0.7l0.1,0.3c0.2,0.6,0.3,1.3,0.3,1.9C41.9,33.3,38.8,36.3,34.9,36.3z"/>
<path class="st0" d="M34.9,31.2c-0.5,0-0.9-0.4-0.9-0.9c0-0.5,0.4-0.9,0.9-0.9c0.5,0,0.9,0.4,0.9,0.9C35.8,30.8,35.4,31.2,34.9,31.2
	z"/>
<path class="st0" d="M36.5,40l-0.2-0.3l-0.3,0c-0.4,0-0.7,0.1-1.1,0.1c-0.4,0-0.8,0-1.1-0.1l-0.3,0L33.2,40l-3,5.2L27,41.8l-4.7-1.1
	l3.5-6.1l0.2-0.3l-0.1-0.2c-0.6-1.3-1-2.8-1-4.3c0-5.5,4.5-10,10-10c2.7,0,5.2,1,7.1,2.9c1.9,1.9,2.9,4.4,2.9,7.1
	c0,1.5-0.3,2.9-0.9,4.2l-0.2,0.4l0.2,0.2l3.5,6.1l-4.7,1.1l-3.3,3.4C39.5,45.2,36.5,40,36.5,40z M29.8,42.7l1.9-3.2l0.2-0.2
	c-0.3-0.1-0.6-0.2-0.9-0.3c-1.2-0.5-2.3-1.2-3.2-2.1c-0.3-0.3-0.6-0.7-0.9-1L26.7,36l-2,3.6l2.8,0.7L29.8,42.7z M42.9,35.8
	c-0.3,0.4-0.6,0.7-0.9,1c-0.9,0.9-2,1.6-3.2,2.1c-0.3,0.1-0.6,0.2-0.9,0.3l0.2,0.2l1.7,3.4l2.3-2.7l3.3-0.7L43.1,36
	C43.1,36,42.9,35.8,42.9,35.8z M35,38.4L35,38.4c1.1,0,2.2-0.2,3.3-0.7c1-0.4,2-1.1,2.7-1.8c0.8-0.8,1.4-1.7,1.8-2.7
	c0.1-0.3,0.3-0.6,0.3-1c0.2-0.8,0.3-1.6,0.3-2.4c0-1.2-0.2-2.3-0.7-3.3c-0.4-1-1.1-1.9-1.8-2.7c-0.8-0.8-1.7-1.4-2.7-1.8
	c-1.1-0.4-2.2-0.7-3.3-0.7c-1.2,0-2.3,0.2-3.3,0.7c-1,0.4-2,1.1-2.7,1.8c-0.8,0.8-1.4,1.7-1.8,2.7c-0.4,1.1-0.7,2.2-0.7,3.3
	c0,1.2,0.2,2.3,0.7,3.3c0.4,1,1.1,1.9,1.8,2.7c0.8,0.8,1.7,1.4,2.7,1.8C32.6,38.1,33.7,38.4,35,38.4L35,38.4
	C34.9,38.4,35,38.4,35,38.4z"/>
<path d="M36.4,0.5h-33c-1.7,0-3.1,1.4-3.1,3.1v40.8c0,1.7,1.4,3.1,3.1,3.1h14.9c0.4,0,0.7-0.3,0.7-0.7c0-0.4-0.3-0.7-0.7-0.7H3.4
	c-0.9,0-1.7-0.8-1.7-1.7V3.6c0-0.9,0.8-1.7,1.7-1.7l33,0"/>
<path d="M34.9,1.6l0.1,16.6c0,0.4,0.3,0.7,0.7,0.7c0.4,0,0.7-0.3,0.7-0.7v-17"/>
<path d="M11.7,47.5h14.9c0.4,0,0.7-0.3,0.7-0.7c0-0.4-0.3-0.7-0.7-0.7H11.7"/>
</svg>
