<?xml version="1.0" encoding="utf-8"?>
<!-- Generator: Adobe Illustrator 25.3.1, SVG Export Plug-In . SVG Version: 6.00 Build 0)  -->
<svg version="1.1" id="图层_1" xmlns="http://www.w3.org/2000/svg" xmlns:xlink="http://www.w3.org/1999/xlink" x="0px" y="0px"
	 viewBox="0 0 48 48" style="enable-background:new 0 0 48 48;" xml:space="preserve">
<style type="text/css">
	.st0{fill:#1296DB;}
</style>
<path d="M24,48H7.2c-1.3,0-2.4-1.1-2.4-2.4l0,0V2.4C4.8,1.1,5.9,0,7.2,0c0,0,0,0,0,0h26.7c0.5,0,1,0.2,1.4,0.6l7.3,7.3
	c0.4,0.4,0.6,0.9,0.6,1.4v17.9h-1.6V9.3c0-0.1,0-0.2-0.1-0.3l-7.3-7.3c-0.1-0.1-0.2-0.1-0.3-0.1H7.2C6.7,1.6,6.4,2,6.4,2.4
	c0,0,0,0,0,0v43.2c0,0.4,0.4,0.8,0.8,0.8h0H24V48z"/>
<path d="M42.4,9.6h-8c-0.4,0-0.8-0.4-0.8-0.8c0,0,0,0,0,0v-8h1.6V8h7.2V9.6z"/>
<rect x="9.6" y="11.7" width="20.8" height="1"/>
<rect x="9.6" y="21.2" width="20.8" height="1"/>
<rect x="9.8" y="29.6" width="9.6" height="1"/>
<rect x="9.6" y="37.7" width="9.6" height="1"/>
<path class="st0" d="M32.8,48c-4.3,0-8.2-2.7-9.7-6.7c-0.2-0.4,0-0.9,0.4-1c0,0,0,0,0,0c0.4-0.2,0.9,0,1,0.4
	c1.7,4.6,6.8,6.9,11.3,5.2s6.9-6.8,5.2-11.3c-1.7-4.6-6.8-6.9-11.3-5.2c-2.4,0.9-4.3,2.8-5.2,5.2c-0.1,0.4-0.6,0.6-1,0.5
	s-0.6-0.6-0.5-1c0,0,0,0,0,0c2-5.4,7.9-8.2,13.3-6.2c5.4,2,8.2,7.9,6.2,13.3C41.1,45.3,37.2,48,32.8,48z"/>
<path class="st0" d="M22.9,35.7c-0.4,0-0.8-0.3-0.9-0.7c0-0.4,0.3-0.8,0.7-0.9l0,0l4.1-0.7c0.4-0.1,0.9,0.2,0.9,0.7
	c0.1,0.4-0.2,0.8-0.7,0.9L23,35.7L22.9,35.7z"/>
<path class="st0" d="M22.9,35.7c-0.4,0-0.8-0.3-0.8-0.7l-0.3-4.1c0-0.4,0.3-0.8,0.7-0.9c0,0,0,0,0,0c0.4,0,0.8,0.3,0.9,0.7l0.3,4.1
	C23.7,35.3,23.4,35.7,22.9,35.7C23,35.7,23,35.7,22.9,35.7L22.9,35.7z M33.1,32.4c-2.3,0-4.2,1.8-4.2,4.1c0,0,0,0,0,0
	c0,2.3,4.2,6.2,4.2,6.2s4.2-3.9,4.2-6.2C37.2,34.3,35.4,32.4,33.1,32.4C33.1,32.4,33.1,32.4,33.1,32.4z M33.1,38.2
	c-0.9,0-1.6-0.7-1.6-1.6c0-0.9,0.7-1.6,1.6-1.6c0.9,0,1.6,0.7,1.6,1.6c0,0,0,0,0,0C34.7,37.5,33.9,38.2,33.1,38.2z"/>
</svg>
