<?xml version="1.0" encoding="utf-8"?>
<!-- Generator: Adobe Illustrator 25.3.1, SVG Export Plug-In . SVG Version: 6.00 Build 0)  -->
<svg version="1.1" id="图层_1" xmlns="http://www.w3.org/2000/svg" xmlns:xlink="http://www.w3.org/1999/xlink" x="0px" y="0px"
	 viewBox="0 0 48 48" style="enable-background:new 0 0 48 48;" xml:space="preserve">
<style type="text/css">
	.st0{fill:#1296DB;}
</style>
<g>
	<path class="st0" d="M24.4,34.6c0.9-3.3,1.8-6.6,2.7-10c-1.2,0-2.3,0-3.3,0c-0.8,0-1.6,0.1-2.4,0.1c-0.7,0-1,0.2-1.2,0.9
		c-0.5,1.7-1.1,3.4-1.8,5c-0.8,1.9-2.1,3.5-4.1,4.4c-1.4,0.6-2.8,0.7-4.2,0c-0.3-0.2-0.8-0.4-0.9-0.8c-0.1-0.4-0.1-1.1,0.1-1.4
		c0.2-0.2,0.9-0.3,1.3-0.2c0.4,0.1,0.6,0.5,0.9,0.8c0.8,0.9,1.6,1,2.3,0.1c0.6-0.7,1.2-1.6,1.5-2.5c1.1-3.4,2.1-6.8,3.1-10.2
		c0.4-1.4,0.8-2.9,1.2-4.3c0.1-0.2,0.1-0.5,0.1-0.8c-2.1,0-4,0.2-5.5,1.7c-0.9,0.9-1,1.6-0.4,2.8c0.1,0.2,0.2,0.4,0.3,0.6
		c0.3,0.6,0.2,1.2-0.4,1.6c-0.6,0.4-1.4,0.1-1.8-0.5c-0.6-0.9-0.5-2-0.2-3c0.4-1.4,1.3-2.4,2.6-3.1c2.8-1.6,5.8-1.3,8.8-1.4
		c-0.9,2.9-1.7,5.6-2.6,8.5c0.8,0,1.4,0,2,0c1.4-0.1,2.7-0.2,4.1-0.2c0.6,0,0.8-0.3,1-0.8c0.5-1.5,1-3.1,1.6-4.5
		c0.4-1,1-1.9,1.6-2.8c1.5-1.9,3.5-2.5,5.8-2c0.6,0.1,1.3,0.7,1.7,1.2c0.2,0.2,0.1,1-0.1,1.3c-0.3,0.3-0.9,0.3-1.4,0.2
		c-0.4-0.1-0.6-0.5-0.9-0.8c-0.9-0.8-1.6-0.9-2.4,0c-0.6,0.7-1,1.4-1.4,2.2c-1.6,3.6-2.5,7.4-3.4,11.3c-0.4,1.8-0.8,3.6-1.3,5.5
		c1.3,0.1,2.5,0.2,3.7,0.2c0.1,0.9,0,1.1-0.9,1c-1.4,0-2.7-0.1-4.1-0.2C25.8,34.6,25.2,34.6,24.4,34.6z"/>
</g>
<path d="M24,46.5C11.6,46.5,1.5,36.4,1.5,24S11.6,1.5,24,1.5S46.5,11.6,46.5,24S36.4,46.5,24,46.5z M24,3.1
	C13.1,3.1,3.1,13.1,3.1,24S13.1,44.9,24,44.9S44.9,34.9,44.9,24S34.9,3.1,24,3.1z"/>
</svg>