
<?xml version="1.0" encoding="utf-8"?>
<!-- Generator: Adobe Illustrator 25.3.1, SVG Export Plug-In . SVG Version: 6.00 Build 0)  -->
<svg version="1.1" id="图层_1" xmlns="http://www.w3.org/2000/svg" xmlns:xlink="http://www.w3.org/1999/xlink" x="0px" y="0px"
	 viewBox="0 0 48 48" style="enable-background:new 0 0 48 48;" xml:space="preserve">
<style type="text/css">
	.st0{fill:#1296DB;}
</style>
<path d="M24.5,45.2c-11.6,0-21-9.4-21-21s9.4-21,21-21s21,9.4,21,21S36.1,45.2,24.5,45.2z M24.5,5.2c-9.9,0-19,9.1-19,19
	s9.1,19,19,19s19-9.1,19-19S34.5,5.2,24.5,5.2z"/>
<path class="st0" d="M24.5,36.2c-0.8,0-1.5-0.7-1.5-1.5V21c0-0.8,0.7-1.5,1.5-1.5c0.8,0,1.5,0.7,1.5,1.5v13.7
	C26,35.5,25.4,36.2,24.5,36.2z"/>
<path class="st0" d="M22.3,13.7c0,1.2,1,2.2,2.2,2.2c1.2,0,2.2-1,2.2-2.2s-1-2.2-2.2-2.2C23.3,11.5,22.3,12.5,22.3,13.7z"/>
</svg>
